<mxfile host="app.diagrams.net" modified="2022-02-23T07:55:58.908Z" agent="5.0 (Windows NT 10.0; Win64; x64) AppleWebKit/537.36 (KHTML, like Gecko) Chrome/98.0.4758.102 Safari/537.36" etag="aFLpwgVrKh6Zk90Gduqq" version="15.9.4" type="github">
  <diagram id="C5RBs43oDa-KdzZeNtuy" name="Page-1">
    <mxGraphModel dx="782" dy="468" grid="1" gridSize="10" guides="1" tooltips="1" connect="1" arrows="1" fold="1" page="1" pageScale="1" pageWidth="827" pageHeight="1169" math="0" shadow="0">
      <root>
        <mxCell id="WIyWlLk6GJQsqaUBKTNV-0" />
        <mxCell id="WIyWlLk6GJQsqaUBKTNV-1" parent="WIyWlLk6GJQsqaUBKTNV-0" />
        <mxCell id="WIyWlLk6GJQsqaUBKTNV-4" value="Yes" style="rounded=0;html=1;jettySize=auto;orthogonalLoop=1;fontSize=11;endArrow=block;endFill=0;endSize=8;strokeWidth=1;shadow=0;labelBackgroundColor=none;edgeStyle=orthogonalEdgeStyle;entryX=0;entryY=0.5;entryDx=0;entryDy=0;" parent="WIyWlLk6GJQsqaUBKTNV-1" source="WIyWlLk6GJQsqaUBKTNV-6" target="WIyWlLk6GJQsqaUBKTNV-11" edge="1">
          <mxGeometry y="20" relative="1" as="geometry">
            <mxPoint as="offset" />
            <mxPoint x="450" y="160" as="targetPoint" />
            <Array as="points">
              <mxPoint x="500" y="210" />
            </Array>
          </mxGeometry>
        </mxCell>
        <mxCell id="WIyWlLk6GJQsqaUBKTNV-5" value="No" style="edgeStyle=orthogonalEdgeStyle;rounded=0;html=1;jettySize=auto;orthogonalLoop=1;fontSize=11;endArrow=block;endFill=0;endSize=8;strokeWidth=1;shadow=0;labelBackgroundColor=none;" parent="WIyWlLk6GJQsqaUBKTNV-1" source="WIyWlLk6GJQsqaUBKTNV-6" target="WIyWlLk6GJQsqaUBKTNV-7" edge="1">
          <mxGeometry y="10" relative="1" as="geometry">
            <mxPoint as="offset" />
          </mxGeometry>
        </mxCell>
        <mxCell id="WIyWlLk6GJQsqaUBKTNV-6" value="Arm架构？" style="rhombus;whiteSpace=wrap;html=1;shadow=0;fontFamily=Helvetica;fontSize=12;align=center;strokeWidth=1;spacing=6;spacingTop=-4;" parent="WIyWlLk6GJQsqaUBKTNV-1" vertex="1">
          <mxGeometry x="450" y="240" width="100" height="80" as="geometry" />
        </mxCell>
        <mxCell id="WIyWlLk6GJQsqaUBKTNV-7" value="activeEdge" style="rounded=1;whiteSpace=wrap;html=1;fontSize=12;glass=0;strokeWidth=1;shadow=0;" parent="WIyWlLk6GJQsqaUBKTNV-1" vertex="1">
          <mxGeometry x="580" y="260" width="120" height="40" as="geometry" />
        </mxCell>
        <mxCell id="WIyWlLk6GJQsqaUBKTNV-11" value="activeEdgeOfArmArchitecture" style="rounded=1;whiteSpace=wrap;html=1;fontSize=12;glass=0;strokeWidth=1;shadow=0;" parent="WIyWlLk6GJQsqaUBKTNV-1" vertex="1">
          <mxGeometry x="580" y="190" width="170" height="40" as="geometry" />
        </mxCell>
        <mxCell id="NEQleENMyvZml1nFLo---3" style="edgeStyle=orthogonalEdgeStyle;rounded=0;orthogonalLoop=1;jettySize=auto;html=1;exitX=0.5;exitY=1;exitDx=0;exitDy=0;" edge="1" parent="WIyWlLk6GJQsqaUBKTNV-1" source="NEQleENMyvZml1nFLo---1">
          <mxGeometry relative="1" as="geometry">
            <mxPoint x="190" y="240" as="targetPoint" />
          </mxGeometry>
        </mxCell>
        <mxCell id="NEQleENMyvZml1nFLo---1" value="开始激活" style="rounded=1;whiteSpace=wrap;html=1;" vertex="1" parent="WIyWlLk6GJQsqaUBKTNV-1">
          <mxGeometry x="150" y="160" width="80" height="40" as="geometry" />
        </mxCell>
        <mxCell id="NEQleENMyvZml1nFLo---4" value="设置状态inactive" style="rounded=1;whiteSpace=wrap;html=1;" vertex="1" parent="WIyWlLk6GJQsqaUBKTNV-1">
          <mxGeometry x="150" y="240" width="80" height="40" as="geometry" />
        </mxCell>
        <mxCell id="NEQleENMyvZml1nFLo---7" style="edgeStyle=orthogonalEdgeStyle;rounded=0;orthogonalLoop=1;jettySize=auto;html=1;exitX=0.5;exitY=1;exitDx=0;exitDy=0;" edge="1" parent="WIyWlLk6GJQsqaUBKTNV-1">
          <mxGeometry relative="1" as="geometry">
            <mxPoint x="191" y="320" as="targetPoint" />
            <mxPoint x="191" y="280" as="sourcePoint" />
          </mxGeometry>
        </mxCell>
        <mxCell id="NEQleENMyvZml1nFLo---8" value="DeployMode判断" style="rounded=1;whiteSpace=wrap;html=1;" vertex="1" parent="WIyWlLk6GJQsqaUBKTNV-1">
          <mxGeometry x="151" y="320" width="80" height="40" as="geometry" />
        </mxCell>
        <mxCell id="NEQleENMyvZml1nFLo---10" value="INLINE_MODE&lt;br&gt;单双机串接" style="rounded=0;whiteSpace=wrap;html=1;" vertex="1" parent="WIyWlLk6GJQsqaUBKTNV-1">
          <mxGeometry x="284" y="247.5" width="130" height="50" as="geometry" />
        </mxCell>
        <mxCell id="NEQleENMyvZml1nFLo---13" value="DUAL_ARM_MODE&lt;br&gt;双臂旁挂" style="rounded=0;whiteSpace=wrap;html=1;" vertex="1" parent="WIyWlLk6GJQsqaUBKTNV-1">
          <mxGeometry x="284" y="560" width="130" height="50" as="geometry" />
        </mxCell>
        <mxCell id="NEQleENMyvZml1nFLo---14" value="" style="endArrow=none;html=1;rounded=0;entryX=1;entryY=0.5;entryDx=0;entryDy=0;" edge="1" parent="WIyWlLk6GJQsqaUBKTNV-1" target="NEQleENMyvZml1nFLo---8">
          <mxGeometry width="50" height="50" relative="1" as="geometry">
            <mxPoint x="260" y="340" as="sourcePoint" />
            <mxPoint x="430" y="300" as="targetPoint" />
          </mxGeometry>
        </mxCell>
        <mxCell id="NEQleENMyvZml1nFLo---15" value="" style="endArrow=none;html=1;rounded=0;" edge="1" parent="WIyWlLk6GJQsqaUBKTNV-1">
          <mxGeometry width="50" height="50" relative="1" as="geometry">
            <mxPoint x="260" y="580" as="sourcePoint" />
            <mxPoint x="260" y="273" as="targetPoint" />
          </mxGeometry>
        </mxCell>
        <mxCell id="NEQleENMyvZml1nFLo---16" value="" style="endArrow=classic;html=1;rounded=0;entryX=0;entryY=0.5;entryDx=0;entryDy=0;" edge="1" parent="WIyWlLk6GJQsqaUBKTNV-1" target="NEQleENMyvZml1nFLo---10">
          <mxGeometry width="50" height="50" relative="1" as="geometry">
            <mxPoint x="260" y="273" as="sourcePoint" />
            <mxPoint x="430" y="300" as="targetPoint" />
          </mxGeometry>
        </mxCell>
        <mxCell id="NEQleENMyvZml1nFLo---17" value="" style="endArrow=classic;html=1;rounded=0;entryX=0;entryY=0.5;entryDx=0;entryDy=0;" edge="1" parent="WIyWlLk6GJQsqaUBKTNV-1">
          <mxGeometry width="50" height="50" relative="1" as="geometry">
            <mxPoint x="260" y="397.5" as="sourcePoint" />
            <mxPoint x="284" y="397" as="targetPoint" />
          </mxGeometry>
        </mxCell>
        <mxCell id="NEQleENMyvZml1nFLo---18" value="" style="endArrow=classic;html=1;rounded=0;entryX=0;entryY=0.5;entryDx=0;entryDy=0;" edge="1" parent="WIyWlLk6GJQsqaUBKTNV-1">
          <mxGeometry width="50" height="50" relative="1" as="geometry">
            <mxPoint x="260" y="579" as="sourcePoint" />
            <mxPoint x="284" y="579" as="targetPoint" />
          </mxGeometry>
        </mxCell>
        <mxCell id="NEQleENMyvZml1nFLo---19" value="" style="endArrow=none;html=1;rounded=0;entryX=0;entryY=0.5;entryDx=0;entryDy=0;entryPerimeter=0;" edge="1" parent="WIyWlLk6GJQsqaUBKTNV-1" target="WIyWlLk6GJQsqaUBKTNV-6">
          <mxGeometry width="50" height="50" relative="1" as="geometry">
            <mxPoint x="414" y="280" as="sourcePoint" />
            <mxPoint x="444" y="280" as="targetPoint" />
          </mxGeometry>
        </mxCell>
        <mxCell id="NEQleENMyvZml1nFLo---20" value="&lt;span&gt;SINGLE_ARM_MODE&lt;/span&gt;&lt;br&gt;&lt;span&gt;单臂旁挂&lt;/span&gt;" style="rhombus;whiteSpace=wrap;html=1;" vertex="1" parent="WIyWlLk6GJQsqaUBKTNV-1">
          <mxGeometry x="284" y="357" width="146" height="80" as="geometry" />
        </mxCell>
        <mxCell id="NEQleENMyvZml1nFLo---21" value="vcpe" style="rounded=0;html=1;jettySize=auto;orthogonalLoop=1;fontSize=11;endArrow=block;endFill=0;endSize=8;strokeWidth=1;shadow=0;labelBackgroundColor=none;edgeStyle=orthogonalEdgeStyle;" edge="1" parent="WIyWlLk6GJQsqaUBKTNV-1">
          <mxGeometry x="0.0196" y="10" relative="1" as="geometry">
            <mxPoint as="offset" />
            <mxPoint x="358" y="357" as="sourcePoint" />
            <mxPoint x="450" y="347" as="targetPoint" />
            <Array as="points">
              <mxPoint x="358" y="347" />
              <mxPoint x="438" y="347" />
            </Array>
          </mxGeometry>
        </mxCell>
        <mxCell id="NEQleENMyvZml1nFLo---22" value="activeSingleArmModeEdge4Vcpe" style="rounded=1;whiteSpace=wrap;html=1;fontSize=12;glass=0;strokeWidth=1;shadow=0;" vertex="1" parent="WIyWlLk6GJQsqaUBKTNV-1">
          <mxGeometry x="450" y="327" width="190" height="40" as="geometry" />
        </mxCell>
        <mxCell id="NEQleENMyvZml1nFLo---23" value="arm" style="rounded=0;html=1;jettySize=auto;orthogonalLoop=1;fontSize=11;endArrow=block;endFill=0;endSize=8;strokeWidth=1;shadow=0;labelBackgroundColor=none;edgeStyle=orthogonalEdgeStyle;" edge="1" parent="WIyWlLk6GJQsqaUBKTNV-1">
          <mxGeometry x="0.1765" y="10" relative="1" as="geometry">
            <mxPoint as="offset" />
            <mxPoint x="440" y="397" as="sourcePoint" />
            <mxPoint x="522" y="397" as="targetPoint" />
            <Array as="points">
              <mxPoint x="430" y="397" />
              <mxPoint x="510" y="397" />
            </Array>
          </mxGeometry>
        </mxCell>
        <mxCell id="NEQleENMyvZml1nFLo---24" value="activeSingleArmModeEdge4ArmArchitecture" style="rounded=1;whiteSpace=wrap;html=1;fontSize=12;glass=0;strokeWidth=1;shadow=0;" vertex="1" parent="WIyWlLk6GJQsqaUBKTNV-1">
          <mxGeometry x="522" y="377" width="238" height="40" as="geometry" />
        </mxCell>
        <mxCell id="NEQleENMyvZml1nFLo---25" value="x86" style="rounded=0;html=1;jettySize=auto;orthogonalLoop=1;fontSize=11;endArrow=block;endFill=0;endSize=8;strokeWidth=1;shadow=0;labelBackgroundColor=none;edgeStyle=orthogonalEdgeStyle;exitX=0.5;exitY=1;exitDx=0;exitDy=0;" edge="1" parent="WIyWlLk6GJQsqaUBKTNV-1" source="NEQleENMyvZml1nFLo---20">
          <mxGeometry x="0.0196" y="10" relative="1" as="geometry">
            <mxPoint as="offset" />
            <mxPoint x="360" y="467" as="sourcePoint" />
            <mxPoint x="452" y="457" as="targetPoint" />
            <Array as="points">
              <mxPoint x="357" y="457" />
            </Array>
          </mxGeometry>
        </mxCell>
        <mxCell id="NEQleENMyvZml1nFLo---26" value="activeSingleArmModeEdge4x86" style="rounded=1;whiteSpace=wrap;html=1;fontSize=12;glass=0;strokeWidth=1;shadow=0;" vertex="1" parent="WIyWlLk6GJQsqaUBKTNV-1">
          <mxGeometry x="452" y="437" width="190" height="43" as="geometry" />
        </mxCell>
        <mxCell id="NEQleENMyvZml1nFLo---27" value="Yes" style="rounded=0;html=1;jettySize=auto;orthogonalLoop=1;fontSize=11;endArrow=block;endFill=0;endSize=8;strokeWidth=1;shadow=0;labelBackgroundColor=none;edgeStyle=orthogonalEdgeStyle;entryX=0;entryY=0.5;entryDx=0;entryDy=0;" edge="1" parent="WIyWlLk6GJQsqaUBKTNV-1" source="NEQleENMyvZml1nFLo---29">
          <mxGeometry y="20" relative="1" as="geometry">
            <mxPoint as="offset" />
            <mxPoint x="590" y="590" as="targetPoint" />
            <Array as="points">
              <mxPoint x="580" y="590" />
              <mxPoint x="580" y="590" />
            </Array>
          </mxGeometry>
        </mxCell>
        <mxCell id="NEQleENMyvZml1nFLo---28" value="No" style="edgeStyle=orthogonalEdgeStyle;rounded=0;html=1;jettySize=auto;orthogonalLoop=1;fontSize=11;endArrow=block;endFill=0;endSize=8;strokeWidth=1;shadow=0;labelBackgroundColor=none;" edge="1" parent="WIyWlLk6GJQsqaUBKTNV-1" source="NEQleENMyvZml1nFLo---29" target="NEQleENMyvZml1nFLo---30">
          <mxGeometry y="10" relative="1" as="geometry">
            <mxPoint as="offset" />
          </mxGeometry>
        </mxCell>
        <mxCell id="NEQleENMyvZml1nFLo---29" value="主备模式?" style="rhombus;whiteSpace=wrap;html=1;shadow=0;fontFamily=Helvetica;fontSize=12;align=center;strokeWidth=1;spacing=6;spacingTop=-4;" vertex="1" parent="WIyWlLk6GJQsqaUBKTNV-1">
          <mxGeometry x="450" y="550" width="100" height="80" as="geometry" />
        </mxCell>
        <mxCell id="NEQleENMyvZml1nFLo---30" value="activeDualArmModeEdge" style="rounded=1;whiteSpace=wrap;html=1;fontSize=12;glass=0;strokeWidth=1;shadow=0;" vertex="1" parent="WIyWlLk6GJQsqaUBKTNV-1">
          <mxGeometry x="550" y="680" width="150" height="40" as="geometry" />
        </mxCell>
        <mxCell id="NEQleENMyvZml1nFLo---32" value="" style="endArrow=none;html=1;rounded=0;entryX=0;entryY=0.5;entryDx=0;entryDy=0;entryPerimeter=0;" edge="1" parent="WIyWlLk6GJQsqaUBKTNV-1" target="NEQleENMyvZml1nFLo---29">
          <mxGeometry width="50" height="50" relative="1" as="geometry">
            <mxPoint x="414" y="590" as="sourcePoint" />
            <mxPoint x="444" y="590" as="targetPoint" />
          </mxGeometry>
        </mxCell>
        <mxCell id="NEQleENMyvZml1nFLo---34" value="Yes" style="rounded=0;html=1;jettySize=auto;orthogonalLoop=1;fontSize=11;endArrow=block;endFill=0;endSize=8;strokeWidth=1;shadow=0;labelBackgroundColor=none;edgeStyle=orthogonalEdgeStyle;entryX=0;entryY=0.5;entryDx=0;entryDy=0;" edge="1" parent="WIyWlLk6GJQsqaUBKTNV-1" source="NEQleENMyvZml1nFLo---36" target="NEQleENMyvZml1nFLo---38">
          <mxGeometry y="20" relative="1" as="geometry">
            <mxPoint as="offset" />
            <mxPoint x="590" y="470" as="targetPoint" />
            <Array as="points">
              <mxPoint x="640" y="520" />
            </Array>
          </mxGeometry>
        </mxCell>
        <mxCell id="NEQleENMyvZml1nFLo---35" value="No" style="edgeStyle=orthogonalEdgeStyle;rounded=0;html=1;jettySize=auto;orthogonalLoop=1;fontSize=11;endArrow=block;endFill=0;endSize=8;strokeWidth=1;shadow=0;labelBackgroundColor=none;" edge="1" parent="WIyWlLk6GJQsqaUBKTNV-1" source="NEQleENMyvZml1nFLo---36" target="NEQleENMyvZml1nFLo---37">
          <mxGeometry y="10" relative="1" as="geometry">
            <mxPoint as="offset" />
          </mxGeometry>
        </mxCell>
        <mxCell id="NEQleENMyvZml1nFLo---36" value="Arm架构？" style="rhombus;whiteSpace=wrap;html=1;shadow=0;fontFamily=Helvetica;fontSize=12;align=center;strokeWidth=1;spacing=6;spacingTop=-4;" vertex="1" parent="WIyWlLk6GJQsqaUBKTNV-1">
          <mxGeometry x="590" y="550" width="100" height="80" as="geometry" />
        </mxCell>
        <mxCell id="NEQleENMyvZml1nFLo---37" value="activeDualArmModeEdge" style="rounded=1;whiteSpace=wrap;html=1;fontSize=12;glass=0;strokeWidth=1;shadow=0;" vertex="1" parent="WIyWlLk6GJQsqaUBKTNV-1">
          <mxGeometry x="720" y="570" width="160" height="40" as="geometry" />
        </mxCell>
        <mxCell id="NEQleENMyvZml1nFLo---38" value="activeDualArmModeEdgeOfArmArchitecture" style="rounded=1;whiteSpace=wrap;html=1;fontSize=12;glass=0;strokeWidth=1;shadow=0;" vertex="1" parent="WIyWlLk6GJQsqaUBKTNV-1">
          <mxGeometry x="720" y="500" width="240" height="40" as="geometry" />
        </mxCell>
        <mxCell id="NEQleENMyvZml1nFLo---41" value="更新数量" style="rounded=1;whiteSpace=wrap;html=1;" vertex="1" parent="WIyWlLk6GJQsqaUBKTNV-1">
          <mxGeometry x="150" y="730" width="80" height="40" as="geometry" />
        </mxCell>
        <mxCell id="NEQleENMyvZml1nFLo---42" value="" style="endArrow=classic;html=1;rounded=0;exitX=0.5;exitY=1;exitDx=0;exitDy=0;entryX=0.5;entryY=0;entryDx=0;entryDy=0;" edge="1" parent="WIyWlLk6GJQsqaUBKTNV-1" source="NEQleENMyvZml1nFLo---8" target="NEQleENMyvZml1nFLo---41">
          <mxGeometry width="50" height="50" relative="1" as="geometry">
            <mxPoint x="240" y="530" as="sourcePoint" />
            <mxPoint x="290" y="480" as="targetPoint" />
          </mxGeometry>
        </mxCell>
        <mxCell id="NEQleENMyvZml1nFLo---43" value="通知监控" style="rounded=1;whiteSpace=wrap;html=1;" vertex="1" parent="WIyWlLk6GJQsqaUBKTNV-1">
          <mxGeometry x="150" y="810" width="80" height="40" as="geometry" />
        </mxCell>
        <mxCell id="NEQleENMyvZml1nFLo---44" value="" style="endArrow=classic;html=1;rounded=0;exitX=0.5;exitY=1;exitDx=0;exitDy=0;entryX=0.5;entryY=0;entryDx=0;entryDy=0;" edge="1" parent="WIyWlLk6GJQsqaUBKTNV-1" source="NEQleENMyvZml1nFLo---41" target="NEQleENMyvZml1nFLo---43">
          <mxGeometry width="50" height="50" relative="1" as="geometry">
            <mxPoint x="240" y="740" as="sourcePoint" />
            <mxPoint x="290" y="690" as="targetPoint" />
          </mxGeometry>
        </mxCell>
        <mxCell id="NEQleENMyvZml1nFLo---45" value="主备模式？" style="rhombus;whiteSpace=wrap;html=1;" vertex="1" parent="WIyWlLk6GJQsqaUBKTNV-1">
          <mxGeometry x="150" y="890" width="80" height="80" as="geometry" />
        </mxCell>
        <mxCell id="NEQleENMyvZml1nFLo---46" value="" style="endArrow=classic;html=1;rounded=0;exitX=0.5;exitY=1;exitDx=0;exitDy=0;entryX=0.5;entryY=0;entryDx=0;entryDy=0;" edge="1" parent="WIyWlLk6GJQsqaUBKTNV-1">
          <mxGeometry width="50" height="50" relative="1" as="geometry">
            <mxPoint x="190" y="850" as="sourcePoint" />
            <mxPoint x="190" y="890" as="targetPoint" />
          </mxGeometry>
        </mxCell>
        <mxCell id="NEQleENMyvZml1nFLo---48" value="结束" style="rounded=1;whiteSpace=wrap;html=1;" vertex="1" parent="WIyWlLk6GJQsqaUBKTNV-1">
          <mxGeometry x="151" y="1090" width="80" height="40" as="geometry" />
        </mxCell>
        <mxCell id="NEQleENMyvZml1nFLo---49" value="Yes" style="rounded=0;html=1;jettySize=auto;orthogonalLoop=1;fontSize=11;endArrow=block;endFill=0;endSize=8;strokeWidth=1;shadow=0;labelBackgroundColor=none;edgeStyle=orthogonalEdgeStyle;entryX=0;entryY=0.5;entryDx=0;entryDy=0;" edge="1" parent="WIyWlLk6GJQsqaUBKTNV-1">
          <mxGeometry y="20" relative="1" as="geometry">
            <mxPoint as="offset" />
            <mxPoint x="271" y="929.5" as="targetPoint" />
            <Array as="points">
              <mxPoint x="261" y="929.5" />
              <mxPoint x="261" y="929.5" />
            </Array>
            <mxPoint x="231" y="929.5" as="sourcePoint" />
          </mxGeometry>
        </mxCell>
        <mxCell id="NEQleENMyvZml1nFLo---50" value="激活备" style="rounded=1;whiteSpace=wrap;html=1;" vertex="1" parent="WIyWlLk6GJQsqaUBKTNV-1">
          <mxGeometry x="270" y="910" width="80" height="40" as="geometry" />
        </mxCell>
        <mxCell id="NEQleENMyvZml1nFLo---51" value="Deploy&lt;br&gt;Mode" style="rhombus;whiteSpace=wrap;html=1;" vertex="1" parent="WIyWlLk6GJQsqaUBKTNV-1">
          <mxGeometry x="390" y="890" width="80" height="80" as="geometry" />
        </mxCell>
        <mxCell id="NEQleENMyvZml1nFLo---52" value="" style="endArrow=classic;html=1;rounded=0;" edge="1" parent="WIyWlLk6GJQsqaUBKTNV-1" target="NEQleENMyvZml1nFLo---51">
          <mxGeometry width="50" height="50" relative="1" as="geometry">
            <mxPoint x="350" y="930" as="sourcePoint" />
            <mxPoint x="400" y="880" as="targetPoint" />
          </mxGeometry>
        </mxCell>
        <mxCell id="NEQleENMyvZml1nFLo---53" value="inline_mode" style="rounded=0;html=1;jettySize=auto;orthogonalLoop=1;fontSize=11;endArrow=block;endFill=0;endSize=8;strokeWidth=1;shadow=0;labelBackgroundColor=none;edgeStyle=orthogonalEdgeStyle;" edge="1" parent="WIyWlLk6GJQsqaUBKTNV-1">
          <mxGeometry x="0.1765" y="10" relative="1" as="geometry">
            <mxPoint as="offset" />
            <mxPoint x="430" y="890" as="sourcePoint" />
            <mxPoint x="522" y="880" as="targetPoint" />
            <Array as="points">
              <mxPoint x="430" y="880" />
              <mxPoint x="510" y="880" />
            </Array>
          </mxGeometry>
        </mxCell>
        <mxCell id="NEQleENMyvZml1nFLo---54" value="activeEdge" style="rounded=1;whiteSpace=wrap;html=1;fontSize=12;glass=0;strokeWidth=1;shadow=0;" vertex="1" parent="WIyWlLk6GJQsqaUBKTNV-1">
          <mxGeometry x="522" y="860" width="88" height="40" as="geometry" />
        </mxCell>
        <mxCell id="NEQleENMyvZml1nFLo---60" value="single_arm_mode" style="rounded=0;html=1;jettySize=auto;orthogonalLoop=1;fontSize=11;endArrow=block;endFill=0;endSize=8;strokeWidth=1;shadow=0;labelBackgroundColor=none;edgeStyle=orthogonalEdgeStyle;entryX=0;entryY=0.5;entryDx=0;entryDy=0;exitX=1;exitY=0.5;exitDx=0;exitDy=0;" edge="1" parent="WIyWlLk6GJQsqaUBKTNV-1" source="NEQleENMyvZml1nFLo---51" target="NEQleENMyvZml1nFLo---61">
          <mxGeometry x="-0.0909" y="10" relative="1" as="geometry">
            <mxPoint as="offset" />
            <mxPoint x="480" y="930" as="sourcePoint" />
            <mxPoint x="562" y="930" as="targetPoint" />
            <Array as="points" />
          </mxGeometry>
        </mxCell>
        <mxCell id="NEQleENMyvZml1nFLo---61" value="not support" style="rounded=1;whiteSpace=wrap;html=1;fontSize=12;glass=0;strokeWidth=1;shadow=0;" vertex="1" parent="WIyWlLk6GJQsqaUBKTNV-1">
          <mxGeometry x="580" y="910" width="80" height="40" as="geometry" />
        </mxCell>
        <mxCell id="NEQleENMyvZml1nFLo---62" value="dual_arm_mode" style="rounded=0;html=1;jettySize=auto;orthogonalLoop=1;fontSize=11;endArrow=block;endFill=0;endSize=8;strokeWidth=1;shadow=0;labelBackgroundColor=none;edgeStyle=orthogonalEdgeStyle;exitX=0.5;exitY=1;exitDx=0;exitDy=0;" edge="1" parent="WIyWlLk6GJQsqaUBKTNV-1">
          <mxGeometry x="0.2175" y="10" relative="1" as="geometry">
            <mxPoint as="offset" />
            <mxPoint x="430" y="970" as="sourcePoint" />
            <mxPoint x="525" y="990" as="targetPoint" />
            <Array as="points">
              <mxPoint x="430" y="990" />
            </Array>
          </mxGeometry>
        </mxCell>
        <mxCell id="NEQleENMyvZml1nFLo---63" value="activeDualArmModeEdge" style="rounded=1;whiteSpace=wrap;html=1;fontSize=12;glass=0;strokeWidth=1;shadow=0;" vertex="1" parent="WIyWlLk6GJQsqaUBKTNV-1">
          <mxGeometry x="525" y="969" width="145" height="43" as="geometry" />
        </mxCell>
        <mxCell id="NEQleENMyvZml1nFLo---67" value="No" style="rounded=0;html=1;jettySize=auto;orthogonalLoop=1;fontSize=11;endArrow=block;endFill=0;endSize=8;strokeWidth=1;shadow=0;labelBackgroundColor=none;edgeStyle=orthogonalEdgeStyle;entryX=0.5;entryY=0;entryDx=0;entryDy=0;" edge="1" parent="WIyWlLk6GJQsqaUBKTNV-1" target="NEQleENMyvZml1nFLo---48">
          <mxGeometry y="19" relative="1" as="geometry">
            <mxPoint as="offset" />
            <mxPoint x="231" y="970" as="targetPoint" />
            <Array as="points">
              <mxPoint x="191" y="970" />
            </Array>
            <mxPoint x="191" y="970" as="sourcePoint" />
          </mxGeometry>
        </mxCell>
        <mxCell id="NEQleENMyvZml1nFLo---68" value="更新数量" style="rounded=1;whiteSpace=wrap;html=1;" vertex="1" parent="WIyWlLk6GJQsqaUBKTNV-1">
          <mxGeometry x="380" y="1090" width="80" height="40" as="geometry" />
        </mxCell>
        <mxCell id="NEQleENMyvZml1nFLo---69" value="通知监控" style="rounded=1;whiteSpace=wrap;html=1;" vertex="1" parent="WIyWlLk6GJQsqaUBKTNV-1">
          <mxGeometry x="270" y="1090" width="80" height="40" as="geometry" />
        </mxCell>
        <mxCell id="NEQleENMyvZml1nFLo---70" value="" style="endArrow=classic;html=1;rounded=0;exitX=0;exitY=0.5;exitDx=0;exitDy=0;entryX=1;entryY=0.5;entryDx=0;entryDy=0;" edge="1" parent="WIyWlLk6GJQsqaUBKTNV-1" source="NEQleENMyvZml1nFLo---68" target="NEQleENMyvZml1nFLo---69">
          <mxGeometry width="50" height="50" relative="1" as="geometry">
            <mxPoint x="380" y="1022" as="sourcePoint" />
            <mxPoint x="430" y="972" as="targetPoint" />
          </mxGeometry>
        </mxCell>
        <mxCell id="NEQleENMyvZml1nFLo---71" value="" style="endArrow=classic;html=1;rounded=0;exitX=0;exitY=0.5;exitDx=0;exitDy=0;entryX=1;entryY=0.5;entryDx=0;entryDy=0;" edge="1" parent="WIyWlLk6GJQsqaUBKTNV-1" source="NEQleENMyvZml1nFLo---69">
          <mxGeometry width="50" height="50" relative="1" as="geometry">
            <mxPoint x="261" y="1109.5" as="sourcePoint" />
            <mxPoint x="231" y="1109.5" as="targetPoint" />
          </mxGeometry>
        </mxCell>
        <mxCell id="NEQleENMyvZml1nFLo---73" value="" style="shape=flexArrow;endArrow=classic;html=1;rounded=0;labelBackgroundColor=#1A1A1A;fillColor=#1A1A1A;" edge="1" parent="WIyWlLk6GJQsqaUBKTNV-1">
          <mxGeometry width="50" height="50" relative="1" as="geometry">
            <mxPoint x="417" y="1020" as="sourcePoint" />
            <mxPoint x="417" y="1084" as="targetPoint" />
            <Array as="points">
              <mxPoint x="417" y="1044" />
            </Array>
          </mxGeometry>
        </mxCell>
      </root>
    </mxGraphModel>
  </diagram>
</mxfile>
